<svg xmlns="http://www.w3.org/2000/svg" viewBox="0 0 520 152" width="520" height="152">
  <rect width="520" height="152" fill="white"/>
  <circle cx="94.00" cy="138.00" r="3.2" fill="#9B1C1C" opacity="0.9"/>
  <circle cx="94.73" cy="130.59" r="3.2" fill="#9B1C1C" opacity="0.9"/>
  <circle cx="96.89" cy="123.46" r="3.2" fill="#9B1C1C" opacity="0.9"/>
  <circle cx="100.40" cy="116.89" r="3.2" fill="#9B1C1C" opacity="0.9"/>
  <circle cx="105.13" cy="111.13" r="3.2" fill="#9B1C1C" opacity="0.9"/>
  <circle cx="110.89" cy="106.40" r="3.2" fill="#9B1C1C" opacity="0.9"/>
  <circle cx="117.46" cy="102.89" r="3.2" fill="#9B1C1C" opacity="0.9"/>
  <circle cx="124.59" cy="100.73" r="3.2" fill="#9B1C1C" opacity="0.9"/>
  <circle cx="132.00" cy="100.00" r="3.2" fill="#4CAF50" opacity="0.9"/>
  <circle cx="139.41" cy="100.73" r="3.2" fill="#4CAF50" opacity="0.9"/>
  <circle cx="146.54" cy="102.89" r="3.2" fill="#4CAF50" opacity="0.9"/>
  <circle cx="153.11" cy="106.40" r="3.2" fill="#4CAF50" opacity="0.9"/>
  <circle cx="158.87" cy="111.13" r="3.2" fill="#4CAF50" opacity="0.9"/>
  <circle cx="163.60" cy="116.89" r="3.2" fill="#E8112d" opacity="0.9"/>
  <circle cx="167.11" cy="123.46" r="3.2" fill="#E8112d" opacity="0.9"/>
  <circle cx="169.27" cy="130.59" r="3.2" fill="#E8112d" opacity="0.9"/>
  <circle cx="170.00" cy="138.00" r="3.2" fill="#E8112d" opacity="0.9"/>
  <circle cx="76.00" cy="138.00" r="3.2" fill="#E8112d" opacity="0.9"/>
  <circle cx="76.52" cy="130.37" r="3.2" fill="#E8112d" opacity="0.9"/>
  <circle cx="78.08" cy="122.89" r="3.2" fill="#E8112d" opacity="0.9"/>
  <circle cx="80.64" cy="115.69" r="3.2" fill="#E8112d" opacity="0.9"/>
  <circle cx="84.15" cy="108.90" r="3.2" fill="#E8112d" opacity="0.9"/>
  <circle cx="88.56" cy="102.66" r="3.2" fill="#E8112d" opacity="0.9"/>
  <circle cx="93.78" cy="97.07" r="3.2" fill="#E8112d" opacity="0.9"/>
  <circle cx="99.71" cy="92.25" r="3.2" fill="#E8112d" opacity="0.9"/>
  <circle cx="106.24" cy="88.28" r="3.2" fill="#E8112d" opacity="0.9"/>
  <circle cx="113.25" cy="85.23" r="3.2" fill="#E8112d" opacity="0.9"/>
  <circle cx="120.61" cy="83.17" r="3.2" fill="#E8112d" opacity="0.9"/>
  <circle cx="128.18" cy="82.13" r="3.2" fill="#E8112d" opacity="0.9"/>
  <circle cx="135.82" cy="82.13" r="3.2" fill="#E8112d" opacity="0.9"/>
  <circle cx="143.39" cy="83.17" r="3.2" fill="#E8112d" opacity="0.9"/>
  <circle cx="150.75" cy="85.23" r="3.2" fill="#E8112d" opacity="0.9"/>
  <circle cx="157.76" cy="88.28" r="3.2" fill="#E8112d" opacity="0.9"/>
  <circle cx="164.29" cy="92.25" r="3.2" fill="#E8112d" opacity="0.9"/>
  <circle cx="170.22" cy="97.07" r="3.2" fill="#E8112d" opacity="0.9"/>
  <circle cx="175.44" cy="102.66" r="3.2" fill="#E8112d" opacity="0.9"/>
  <circle cx="179.85" cy="108.90" r="3.2" fill="#E8112d" opacity="0.9"/>
  <circle cx="183.36" cy="115.69" r="3.2" fill="#E8112d" opacity="0.9"/>
  <circle cx="185.92" cy="122.89" r="3.2" fill="#E8112d" opacity="0.9"/>
  <circle cx="187.48" cy="130.37" r="3.2" fill="#E8112d" opacity="0.9"/>
  <circle cx="188.00" cy="138.00" r="3.2" fill="#E8112d" opacity="0.9"/>
  <circle cx="58.00" cy="138.00" r="3.2" fill="#E8112d" opacity="0.9"/>
  <circle cx="58.41" cy="130.26" r="3.2" fill="#E8112d" opacity="0.9"/>
  <circle cx="59.62" cy="122.61" r="3.2" fill="#E8112d" opacity="0.9"/>
  <circle cx="61.62" cy="115.13" r="3.2" fill="#E8112d" opacity="0.9"/>
  <circle cx="64.40" cy="107.90" r="3.2" fill="#E8112d" opacity="0.9"/>
  <circle cx="67.91" cy="101.00" r="3.2" fill="#E8112d" opacity="0.9"/>
  <circle cx="72.13" cy="94.50" r="3.2" fill="#00943A" opacity="0.9"/>
  <circle cx="77.01" cy="88.48" r="3.2" fill="#00943A" opacity="0.9"/>
  <circle cx="82.48" cy="83.01" r="3.2" fill="#00943A" opacity="0.9"/>
  <circle cx="88.50" cy="78.13" r="3.2" fill="#00943A" opacity="0.9"/>
  <circle cx="95.00" cy="73.91" r="3.2" fill="#00943A" opacity="0.9"/>
  <circle cx="101.90" cy="70.40" r="3.2" fill="#00943A" opacity="0.9"/>
  <circle cx="109.13" cy="67.62" r="3.2" fill="#00943A" opacity="0.9"/>
  <circle cx="116.61" cy="65.62" r="3.2" fill="#00943A" opacity="0.9"/>
  <circle cx="124.26" cy="64.41" r="3.2" fill="#1A78C2" opacity="0.9"/>
  <circle cx="132.00" cy="64.00" r="3.2" fill="#1A78C2" opacity="0.9"/>
  <circle cx="139.74" cy="64.41" r="3.2" fill="#1A78C2" opacity="0.9"/>
  <circle cx="147.39" cy="65.62" r="3.2" fill="#1A78C2" opacity="0.9"/>
  <circle cx="154.87" cy="67.62" r="3.2" fill="#1A78C2" opacity="0.9"/>
  <circle cx="162.10" cy="70.40" r="3.2" fill="#52BDEC" opacity="0.9"/>
  <circle cx="169.00" cy="73.91" r="3.2" fill="#52BDEC" opacity="0.9"/>
  <circle cx="175.50" cy="78.13" r="3.2" fill="#52BDEC" opacity="0.9"/>
  <circle cx="181.52" cy="83.01" r="3.2" fill="#52BDEC" opacity="0.9"/>
  <circle cx="186.99" cy="88.48" r="3.2" fill="#52BDEC" opacity="0.9"/>
  <circle cx="191.87" cy="94.50" r="3.2" fill="#52BDEC" opacity="0.9"/>
  <circle cx="196.09" cy="101.00" r="3.2" fill="#52BDEC" opacity="0.9"/>
  <circle cx="199.60" cy="107.90" r="3.2" fill="#52BDEC" opacity="0.9"/>
  <circle cx="202.38" cy="115.13" r="3.2" fill="#52BDEC" opacity="0.9"/>
  <circle cx="204.38" cy="122.61" r="3.2" fill="#52BDEC" opacity="0.9"/>
  <circle cx="205.59" cy="130.26" r="3.2" fill="#52BDEC" opacity="0.9"/>
  <circle cx="206.00" cy="138.00" r="3.2" fill="#52BDEC" opacity="0.9"/>
  <circle cx="40.00" cy="138.00" r="3.2" fill="#52BDEC" opacity="0.9"/>
  <circle cx="40.33" cy="130.20" r="3.2" fill="#52BDEC" opacity="0.9"/>
  <circle cx="41.32" cy="122.45" r="3.2" fill="#52BDEC" opacity="0.9"/>
  <circle cx="42.97" cy="114.82" r="3.2" fill="#52BDEC" opacity="0.9"/>
  <circle cx="45.26" cy="107.35" r="3.2" fill="#52BDEC" opacity="0.9"/>
  <circle cx="48.17" cy="100.11" r="3.2" fill="#52BDEC" opacity="0.9"/>
  <circle cx="51.68" cy="93.13" r="3.2" fill="#52BDEC" opacity="0.9"/>
  <circle cx="55.78" cy="86.48" r="3.2" fill="#52BDEC" opacity="0.9"/>
  <circle cx="60.42" cy="80.20" r="3.2" fill="#52BDEC" opacity="0.9"/>
  <circle cx="65.58" cy="74.34" r="3.2" fill="#1A3F7A" opacity="0.9"/>
  <circle cx="71.22" cy="68.94" r="3.2" fill="#1A3F7A" opacity="0.9"/>
  <circle cx="77.29" cy="64.03" r="3.2" fill="#1A3F7A" opacity="0.9"/>
  <circle cx="83.76" cy="59.66" r="3.2" fill="#1A3F7A" opacity="0.9"/>
  <circle cx="90.58" cy="55.85" r="3.2" fill="#1A3F7A" opacity="0.9"/>
  <circle cx="97.70" cy="52.63" r="3.2" fill="#1A3F7A" opacity="0.9"/>
  <circle cx="105.06" cy="50.03" r="3.2" fill="#DDB800" opacity="0.9"/>
  <circle cx="112.62" cy="48.06" r="3.2" fill="#DDB800" opacity="0.9"/>
  <circle cx="120.31" cy="46.75" r="3.2" fill="#DDB800" opacity="0.9"/>
  <circle cx="128.10" cy="46.08" r="3.2" fill="#DDB800" opacity="0.9"/>
  <circle cx="135.90" cy="46.08" r="3.2" fill="#DDB800" opacity="0.9"/>
  <circle cx="143.69" cy="46.75" r="3.2" fill="#DDB800" opacity="0.9"/>
  <circle cx="151.38" cy="48.06" r="3.2" fill="#DDB800" opacity="0.9"/>
  <circle cx="158.94" cy="50.03" r="3.2" fill="#DDB800" opacity="0.9"/>
  <circle cx="166.30" cy="52.63" r="3.2" fill="#DDB800" opacity="0.9"/>
  <circle cx="173.42" cy="55.85" r="3.2" fill="#DDB800" opacity="0.9"/>
  <circle cx="180.24" cy="59.66" r="3.2" fill="#DDB800" opacity="0.9"/>
  <circle cx="186.71" cy="64.03" r="3.2" fill="#DDB800" opacity="0.9"/>
  <circle cx="192.78" cy="68.94" r="3.2" fill="#DDB800" opacity="0.9"/>
  <circle cx="198.42" cy="74.34" r="3.2" fill="#DDB800" opacity="0.9"/>
  <circle cx="203.58" cy="80.20" r="3.2" fill="#DDB800" opacity="0.9"/>
  <circle cx="208.22" cy="86.48" r="3.2" fill="#DDB800" opacity="0.9"/>
  <circle cx="212.32" cy="93.13" r="3.2" fill="#DDB800" opacity="0.9"/>
  <circle cx="215.83" cy="100.11" r="3.2" fill="#DDB800" opacity="0.9"/>
  <circle cx="218.74" cy="107.35" r="3.2" fill="#DDB800" opacity="0.9"/>
  <circle cx="221.03" cy="114.82" r="3.2" fill="#DDB800" opacity="0.9"/>
  <circle cx="222.68" cy="122.45" r="3.2" fill="#DDB800" opacity="0.9"/>
  <circle cx="223.67" cy="130.20" r="3.2" fill="#DDB800" opacity="0.9"/>
  <circle cx="224.00" cy="138.00" r="3.2" fill="#DDB800" opacity="0.9"/>
  <!-- Avdelare -->
  <line x1="276" y1="16" x2="276" y2="140" stroke="#e0e0e0" stroke-width="1.5"/>
  <!-- Appnamn -->
  <text x="296" y="78" font-family="DM Sans,system-ui,sans-serif" font-size="34" font-weight="700" fill="#0D1B2A" letter-spacing="-0.8">Mandatorn</text>
  <!-- Underrubrik -->
  <text x="298" y="103" font-family="DM Sans,system-ui,sans-serif" font-size="13.5" font-weight="400" fill="#6b7280" letter-spacing="0.2">Riksdagsprognos</text>
</svg>